<svg width="465" height="402" viewBox="0 0 465 402" fill="none" xmlns="http://www.w3.org/2000/svg">
<g clip-path="url(#clip0_1001_2)">
<rect width="465" height="401.523" rx="14" fill="#F3F0E7"/>
<path d="M118.847 401.523H346.153V267.87C346.153 261.272 340.825 255.944 334.227 255.944H130.773C124.175 255.944 118.847 261.272 118.847 267.87V401.523Z" fill="#2D2D2D"/>
<path d="M129.479 255.944H335.521V118.847H129.479V255.944Z" fill="#D4A857"/>
<path d="M129.479 118.847H335.521L232.5 0L129.479 118.847Z" fill="#234D3C"/>
<rect x="146.59" y="146.59" width="171.82" height="92.242" rx="4" fill="#F3F0E7"/>
<path d="M259.083 205.69C259.083 216.732 250.155 225.66 239.113 225.66H193.387C182.345 225.66 173.417 216.732 173.417 205.69V170.81H259.083V205.69Z" fill="#2D2D2D"/>
<path d="M211.233 138.034C211.233 123.63 222.102 112.761 236.506 112.761C250.91 112.761 261.779 123.63 261.779 138.034C261.779 152.438 250.91 163.307 236.506 163.307C222.102 163.307 211.233 152.438 211.233 138.034Z" fill="#6A6A6A"/>
<path d="M216.549 170.81H170.721C167.387 170.81 164.675 173.522 164.675 176.856V213.9C164.675 217.234 167.387 219.946 170.721 219.946H173.417V170.81H216.549Z" fill="#6A6A6A"/>
<path d="M232.5 35.8828L254.34 78.4312H210.66L232.5 35.8828Z" fill="#F3F0E7"/>
<rect x="180.203" y="180.203" width="104.594" height="6.8126" rx="3.4063" fill="#6A6A6A"/>
<rect x="180.203" y="193.829" width="74.9386" height="6.8126" rx="3.4063" fill="#6A6A6A"/>
</g>
<defs>
<clipPath id="clip0_1001_2">
<rect width="465" height="401.523" rx="14" fill="white"/>
</clipPath>
</defs>
</svg>
